<mxfile host="app.diagrams.net" modified="2023-06-13T10:57:13.467Z" agent="Mozilla/5.0 (Windows NT 10.0; Win64; x64) AppleWebKit/537.36 (KHTML, like Gecko) Chrome/114.0.0.0 Safari/537.36" etag="OxdpWUKqpnPI3F-7H244" version="21.3.8" type="device">
  <diagram id="QRrXBG6_SXqd5s1JYcSQ" name="Page-1">
    <mxGraphModel dx="1615" dy="1905" grid="1" gridSize="10" guides="1" tooltips="1" connect="1" arrows="1" fold="1" page="1" pageScale="1" pageWidth="850" pageHeight="1100" math="0" shadow="0">
      <root>
        <mxCell id="0" />
        <mxCell id="1" parent="0" />
        <mxCell id="68YzYJUB7aVhe4MOimAx-10" value="" style="rounded=1;whiteSpace=wrap;html=1;fillColor=none;dashed=1;strokeWidth=5;strokeColor=#007FFF;glass=0;perimeterSpacing=0;" vertex="1" parent="1">
          <mxGeometry x="325" y="20" width="1485" height="260" as="geometry" />
        </mxCell>
        <mxCell id="r2ZMJQZ2ZS2uarGRFzwT-11" value="" style="rounded=1;whiteSpace=wrap;html=1;fillColor=none;" parent="1" vertex="1">
          <mxGeometry x="340" y="60" width="430" height="210" as="geometry" />
        </mxCell>
        <mxCell id="68YzYJUB7aVhe4MOimAx-13" value="" style="rounded=1;whiteSpace=wrap;html=1;fillColor=#D5E8D4;strokeColor=#82B366;" vertex="1" parent="1">
          <mxGeometry x="570" y="90.5" width="170" height="120" as="geometry" />
        </mxCell>
        <mxCell id="68YzYJUB7aVhe4MOimAx-12" value="" style="rounded=1;whiteSpace=wrap;html=1;fillColor=#D5E8D4;strokeColor=#82B366;" vertex="1" parent="1">
          <mxGeometry x="360" y="90" width="170" height="120" as="geometry" />
        </mxCell>
        <mxCell id="r2ZMJQZ2ZS2uarGRFzwT-6" value="&lt;b&gt;Master&lt;br&gt;&lt;/b&gt;" style="text;html=1;strokeColor=none;fillColor=none;align=center;verticalAlign=middle;whiteSpace=wrap;rounded=0;" parent="1" vertex="1">
          <mxGeometry x="1069.45" y="-140" width="105" height="20" as="geometry" />
        </mxCell>
        <mxCell id="r2ZMJQZ2ZS2uarGRFzwT-10" value="&lt;b&gt;Kubernetes Cluster&lt;/b&gt;" style="text;html=1;strokeColor=none;fillColor=none;align=center;verticalAlign=middle;whiteSpace=wrap;rounded=0;" parent="1" vertex="1">
          <mxGeometry x="355" width="130" height="20" as="geometry" />
        </mxCell>
        <mxCell id="r2ZMJQZ2ZS2uarGRFzwT-17" value="&lt;font color=&quot;#000000&quot;&gt;Portfolio&lt;br&gt;web&lt;br&gt;app&lt;/font&gt;" style="rounded=0;whiteSpace=wrap;html=1;fillColor=#fff2cc;strokeColor=#d6b656;" parent="1" vertex="1">
          <mxGeometry x="364" y="110.25" width="130" height="57.5" as="geometry" />
        </mxCell>
        <mxCell id="r2ZMJQZ2ZS2uarGRFzwT-18" value="&lt;b&gt;Pod&lt;/b&gt;" style="text;html=1;strokeColor=none;fillColor=none;align=center;verticalAlign=middle;whiteSpace=wrap;rounded=0;" parent="1" vertex="1">
          <mxGeometry x="425" y="210" width="40" height="20" as="geometry" />
        </mxCell>
        <mxCell id="r2ZMJQZ2ZS2uarGRFzwT-19" value="&lt;b&gt;Node 1&lt;/b&gt;" style="text;html=1;strokeColor=none;fillColor=none;align=center;verticalAlign=middle;whiteSpace=wrap;rounded=0;" parent="1" vertex="1">
          <mxGeometry x="360" y="40" width="50" height="20" as="geometry" />
        </mxCell>
        <mxCell id="r2ZMJQZ2ZS2uarGRFzwT-21" value="&lt;b&gt;&lt;font color=&quot;#000000&quot; style=&quot;font-size: 10px;&quot;&gt;Service&lt;/font&gt;&lt;/b&gt;" style="text;html=1;align=center;verticalAlign=middle;whiteSpace=wrap;rounded=0;fillColor=#FFFF33;fillStyle=solid;" parent="1" vertex="1">
          <mxGeometry x="425" y="70" width="40" height="20" as="geometry" />
        </mxCell>
        <mxCell id="r2ZMJQZ2ZS2uarGRFzwT-62" value="&lt;b&gt;Pod&lt;/b&gt;" style="text;html=1;strokeColor=none;fillColor=none;align=center;verticalAlign=middle;whiteSpace=wrap;rounded=0;" parent="1" vertex="1">
          <mxGeometry x="630" y="210" width="40" height="20" as="geometry" />
        </mxCell>
        <mxCell id="68YzYJUB7aVhe4MOimAx-4" style="edgeStyle=orthogonalEdgeStyle;rounded=0;orthogonalLoop=1;jettySize=auto;html=1;exitX=0.5;exitY=1;exitDx=0;exitDy=0;entryX=0.5;entryY=0;entryDx=0;entryDy=0;" edge="1" parent="1" source="r2ZMJQZ2ZS2uarGRFzwT-94" target="r2ZMJQZ2ZS2uarGRFzwT-99">
          <mxGeometry relative="1" as="geometry" />
        </mxCell>
        <mxCell id="r2ZMJQZ2ZS2uarGRFzwT-94" value="&lt;font style=&quot;font-size: 18px&quot;&gt;HTTP&lt;/font&gt;" style="text;html=1;strokeColor=none;fillColor=none;align=center;verticalAlign=middle;whiteSpace=wrap;rounded=0;dashed=1;" parent="1" vertex="1">
          <mxGeometry x="684" y="-410" width="57" height="40" as="geometry" />
        </mxCell>
        <mxCell id="68YzYJUB7aVhe4MOimAx-28" style="edgeStyle=orthogonalEdgeStyle;rounded=0;orthogonalLoop=1;jettySize=auto;html=1;exitX=0.5;exitY=1;exitDx=0;exitDy=0;entryX=0.5;entryY=0;entryDx=0;entryDy=0;" edge="1" parent="1" source="r2ZMJQZ2ZS2uarGRFzwT-99" target="68YzYJUB7aVhe4MOimAx-25">
          <mxGeometry relative="1" as="geometry" />
        </mxCell>
        <mxCell id="r2ZMJQZ2ZS2uarGRFzwT-99" value="&lt;font style=&quot;font-size: 18px&quot;&gt;Ingress&lt;br&gt;managed&lt;br&gt;load balancer&lt;br&gt;&lt;/font&gt;" style="rounded=0;whiteSpace=wrap;html=1;fillColor=none;" parent="1" vertex="1">
          <mxGeometry x="642.5" y="-310" width="140" height="70" as="geometry" />
        </mxCell>
        <mxCell id="68YzYJUB7aVhe4MOimAx-7" value="" style="shape=image;verticalLabelPosition=bottom;labelBackgroundColor=#ffffff;verticalAlign=top;aspect=fixed;imageAspect=0;image=data:image/svg+xml,PHN2ZyB4bWxuczpkYz0iaHR0cDovL3B1cmwub3JnL2RjL2VsZW1lbnRzLzEuMS8iIHhtbG5zOmNjPSJodHRwOi8vY3JlYXRpdmVjb21tb25zLm9yZy9ucyMiIHhtbG5zOnJkZj0iaHR0cDovL3d3dy53My5vcmcvMTk5OS8wMi8yMi1yZGYtc3ludGF4LW5zIyIgeG1sbnM6c3ZnPSJodHRwOi8vd3d3LnczLm9yZy8yMDAwL3N2ZyIgeG1sbnM9Imh0dHA6Ly93d3cudzMub3JnLzIwMDAvc3ZnIiB4bWxuczpzb2RpcG9kaT0iaHR0cDovL3NvZGlwb2RpLnNvdXJjZWZvcmdlLm5ldC9EVEQvc29kaXBvZGktMC5kdGQiIHhtbG5zOmlua3NjYXBlPSJodHRwOi8vd3d3Lmlua3NjYXBlLm9yZy9uYW1lc3BhY2VzL2lua3NjYXBlIiB2ZXJzaW9uPSIxLjEiIGlkPSJzdmcxMDQ1NzIiIGlua3NjYXBlOnZlcnNpb249IjAuOTIuMyAoMjQwNTU0NiwgMjAxOC0wMy0xMSkiIHNvZGlwb2RpOmRvY25hbWU9InNxbC5zdmciIHg9IjBweCIgeT0iMHB4IiB2aWV3Qm94PSIwIDAgNDYuMDMgNjEuMDIiIHhtbDpzcGFjZT0icHJlc2VydmUiIHdpZHRoPSI0Ni4wMjk5OTkiIGhlaWdodD0iNjEuMDIiPjxtZXRhZGF0YSBpZD0ibWV0YWRhdGExMDQ4Ij48cmRmOlJERj48Y2M6V29yayByZGY6YWJvdXQ9IiI+PGRjOmZvcm1hdD5pbWFnZS9zdmcreG1sPC9kYzpmb3JtYXQ+PGRjOnR5cGUgcmRmOnJlc291cmNlPSJodHRwOi8vcHVybC5vcmcvZGMvZGNtaXR5cGUvU3RpbGxJbWFnZSIvPjxkYzp0aXRsZS8+PC9jYzpXb3JrPjwvcmRmOlJERj48L21ldGFkYXRhPjxkZWZzIGlkPSJkZWZzMTA0NiI+JiN4YTsJJiN4YTsmI3hhOwkmI3hhOyYjeGE7CSYjeGE7JiN4YTsJJiN4YTsmI3hhOwkmI3hhOyYjeGE7CSYjeGE7JiN4YTsJJiN4YTsmI3hhOwkmI3hhOyYjeGE7CSYjeGE7JiN4YTsJCSYjeGE7CSYjeGE7CQkmI3hhOwkmI3hhOwkJJiN4YTsJJiN4YTsJCSYjeGE7CSYjeGE7CQkmI3hhOwkmI3hhOwkJJiN4YTsJJiN4YTsJCSYjeGE7CSYjeGE7CQkmI3hhOwk8L2RlZnM+JiN4YTs8ZmlsdGVyIGlkPSJmaWx0ZXJfMiI+JiN4YTsJPGZlR2F1c3NpYW5CbHVyIGlkPSJmZUdhdXNzaWFuQmx1cjEwNDQ4OSIgc3RkRGV2aWF0aW9uPSIyIi8+JiN4YTs8L2ZpbHRlcj4mI3hhOzxzb2RpcG9kaTpuYW1lZHZpZXcgYm9yZGVyY29sb3I9IiM2NjY2NjYiIGJvcmRlcm9wYWNpdHk9IjEiIGZpdC1tYXJnaW4tYm90dG9tPSIwIiBmaXQtbWFyZ2luLWxlZnQ9IjAiIGZpdC1tYXJnaW4tcmlnaHQ9IjAiIGZpdC1tYXJnaW4tdG9wPSIwIiBncmlkdG9sZXJhbmNlPSIxMCIgZ3VpZGV0b2xlcmFuY2U9IjEwIiBpZD0ibmFtZWR2aWV3MTA0NTc0IiBpbmtzY2FwZTpjdXJyZW50LWxheWVyPSJzdmcxMDQ1NzIiIGlua3NjYXBlOmN4PSIwLjI3NDc3MzkyIiBpbmtzY2FwZTpjeT0iMjcuOTI1ODA5IiBpbmtzY2FwZTpwYWdlb3BhY2l0eT0iMCIgaW5rc2NhcGU6cGFnZXNoYWRvdz0iMiIgaW5rc2NhcGU6d2luZG93LWhlaWdodD0iMTAxNyIgaW5rc2NhcGU6d2luZG93LW1heGltaXplZD0iMSIgaW5rc2NhcGU6d2luZG93LXdpZHRoPSIxOTIwIiBpbmtzY2FwZTp3aW5kb3cteD0iLTgiIGlua3NjYXBlOndpbmRvdy15PSItOCIgaW5rc2NhcGU6em9vbT0iNy42MDUyNjMyIiBvYmplY3R0b2xlcmFuY2U9IjEwIiBwYWdlY29sb3I9IiNmZmZmZmYiIHNob3dncmlkPSJmYWxzZSI+JiN4YTsJPC9zb2RpcG9kaTpuYW1lZHZpZXc+JiN4YTsmI3hhOzxwYXRoIGlkPSJwYXRoMTA0NTAyIiBpbmtzY2FwZTpjb25uZWN0b3ItY3VydmF0dXJlPSIwIiBzdHlsZT0iZmlsbDojMDA3MmM2IiBkPSJtIDAsOC4zNCB2IDQ0LjM0IGMgMCw0LjYxIDEwLjMxLDguMzQgMjMuMDIsOC4zNCBWIDguMzQgWiIvPiYjeGE7JiN4YTs8cGF0aCBpZD0icGF0aDEwNDUxMCIgaW5rc2NhcGU6Y29ubmVjdG9yLWN1cnZhdHVyZT0iMCIgc3R5bGU9ImZpbGw6IzAwNzJjNiIgZD0ibSAyMi43LDYxLjAyIGggMC4zMiBjIDEyLjcxLDAgMjMuMDEsLTMuNzMgMjMuMDEsLTguMzQgViA4LjM0IEggMjIuNyBaIi8+JiN4YTsmI3hhOzxwYXRoIGlkPSJwYXRoMTA0NTE4IiBpbmtzY2FwZTpjb25uZWN0b3ItY3VydmF0dXJlPSIwIiBzdHlsZT0iZmlsbDojZmZmZmZmO2ZpbGwtb3BhY2l0eTowLjE1IiBkPSJtIDIyLjcsNjEuMDIgaCAwLjMyIGMgMTIuNzEsMCAyMy4wMSwtMy43MyAyMy4wMSwtOC4zNCBWIDguMzQgSCAyMi43IFoiLz4mI3hhOyYjeGE7PHBhdGggaWQ9InBhdGgxMDQ1MjYiIGlua3NjYXBlOmNvbm5lY3Rvci1jdXJ2YXR1cmU9IjAiIHN0eWxlPSJmaWxsOiNmZmZmZmYiIGQ9Im0gNDYuMDMsOC4zMyBjIDAsNC42MSAtMTAuMyw4LjM0IC0yMy4wMSw4LjM0IEMgMTAuMzEsMTYuNjcgMCwxMi45NCAwLDguMzMgMCwzLjczIDEwLjMxLDAgMjMuMDIsMCAzNS43MywwIDQ2LjAzLDMuNzMgNDYuMDMsOC4zMyBaIi8+JiN4YTsmI3hhOzxwYXRoIGlkPSJwYXRoMTA0NTM0IiBpbmtzY2FwZTpjb25uZWN0b3ItY3VydmF0dXJlPSIwIiBzdHlsZT0iZmlsbDojN2ZiYTAwIiBkPSJtIDQxLjMyLDcuODUgYyAwLDMuMDQgLTguMTksNS41IC0xOC4zMSw1LjUgLTEwLjExLDAgLTE4LjMxLC0yLjQ2IC0xOC4zMSwtNS41IDAsLTMuMDQgOC4yLC01LjUgMTguMzEsLTUuNSAxMC4xMiwwIDE4LjMxLDIuNDYgMTguMzEsNS41IHoiLz4mI3hhOyYjeGE7PHBhdGggaWQ9InBhdGgxMDQ1NDIiIGlua3NjYXBlOmNvbm5lY3Rvci1jdXJ2YXR1cmU9IjAiIHN0eWxlPSJmaWxsOiNiOGQ0MzIiIGQ9Im0gMzcuNSwxMS4yMSBjIDIuMzksLTAuOTMgMy44MywtMi4wOSAzLjgzLC0zLjM2IDAsLTMuMDQgLTguMTksLTUuNSAtMTguMzEsLTUuNSAtMTAuMTEsMCAtMTguMzEsMi40NiAtMTguMzEsNS41IDAsMS4yNyAxLjQ0LDIuNDMgMy44NCwzLjM2IDMuMzUsLTEuMyA4LjU4LC0yLjE0IDE0LjQ3LC0yLjE0IDUuOSwwIDExLjEzLDAuODQgMTQuNDgsMi4xNCB6Ii8+JiN4YTsmI3hhOzxwYXRoIGlkPSJwYXRoMTA0NTUwIiBpbmtzY2FwZTpjb25uZWN0b3ItY3VydmF0dXJlPSIwIiBzdHlsZT0iZmlsbDojZmZmZmZmIiBkPSJtIDE1LjcxLDM5LjExIGMgMCwxLjM4IC0wLjUsMi40NSAtMS41LDMuMjEgLTEsMC43NSAtMi4zOCwxLjEzIC00LjE0LDEuMTMgLTEuNSwwIC0yLjc1LC0wLjI3IC0zLjc2LC0wLjgxIFYgMzkuNCBjIDEuMTYsMC45OCAyLjQ0LDEuNDggMy44NCwxLjQ4IDAuNjcsMCAxLjIsLTAuMTQgMS41NiwtMC40MSAwLjM3LC0wLjI3IDAuNTYsLTAuNjMgMC41NiwtMS4wNyAwLC0wLjQ0IC0wLjE4LC0wLjgyIC0wLjUzLC0xLjE1IEMgMTEuMzgsMzcuOTMgMTAuNjYsMzcuNTEgOS41NywzNyA3LjM2LDM1Ljk2IDYuMjUsMzQuNTQgNi4yNSwzMi43NCBjIDAsLTEuMyAwLjQ4LC0yLjM1IDEuNDUsLTMuMTMgMC45NiwtMC43OSAyLjI1LC0xLjE4IDMuODUsLTEuMTggMS40MiwwIDIuNTksMC4xOCAzLjUyLDAuNTUgdiAzLjAzIEMgMTQuMDksMzEuMzQgMTIuOTgsMzEgMTEuNzMsMzEgYyAtMC42MywwIC0xLjEyLDAuMTMgLTEuNDksMC40IC0wLjM2LDAuMjcgLTAuNTQsMC42MiAtMC41NCwxLjA3IDAsMC40NiAwLjE0LDAuODMgMC40NCwxLjEzIDAuMjksMC4yOSAwLjg5LDAuNjUgMS44LDEuMDkgMS4zNiwwLjY0IDIuMzMsMS4yOSAyLjkxLDEuOTUgMC41NywwLjY2IDAuODYsMS40OSAwLjg2LDIuNDcgeiIvPiYjeGE7JiN4YTs8cGF0aCBpZD0icGF0aDEwNDU1OCIgaW5rc2NhcGU6Y29ubmVjdG9yLWN1cnZhdHVyZT0iMCIgc3R5bGU9ImZpbGw6I2ZmZmZmZiIgZD0ibSAzMS4zMywzNS44NCBjIDAsMS43MSAtMC4zOSwzLjE5IC0xLjE2LDQuNDUgLTAuNzgsMS4yNSAtMS44NywyLjEzIC0zLjI4LDIuNjQgbCA0LjIxLDMuOSBoIC00LjI1IGwgLTMuMDEsLTMuMzcgYyAtMS4yOSwtMC4wNSAtMi40NiwtMC4zOSAtMy40OSwtMS4wMyAtMS4wNCwtMC42MyAtMS44NCwtMS41IC0yLjQsLTIuNjEgLTAuNTcsLTEuMSAtMC44NSwtMi4zMyAtMC44NSwtMy42OSAwLC0xLjUgMC4zMSwtMi44NSAwLjkyLC00LjAyIDAuNjEsLTEuMTggMS40NywtMi4wOSAyLjU3LC0yLjcyIDEuMTEsLTAuNjQgMi4zOCwtMC45NiAzLjgxLC0wLjk2IDEuMzQsMCAyLjU0LDAuMzEgMy41OSwwLjkzIDEuMDYsMC42MSAxLjg4LDEuNDggMi40NywyLjYyIDAuNTgsMS4xMyAwLjg3LDIuNDIgMC44NywzLjg2IHogbSAtMy40NCwwLjE4IGMgMCwtMS40NyAtMC4zMiwtMi42MyAtMC45NiwtMy40OSAtMC42NSwtMC44NSAtMS41MiwtMS4yOCAtMi42NCwtMS4yOCAtMS4xMywwIC0yLjA0LDAuNDMgLTIuNzIsMS4yOSAtMC42OCwwLjg1IC0xLjAzLDEuOTkgLTEuMDMsMy40MiAwLDEuNDIgMC4zNCwyLjU1IDEuMDEsMy40IDAuNjcsMC44NCAxLjU1LDEuMjcgMi42NiwxLjI3IDEuMTMsMCAyLjAyLC0wLjQxIDIuNjgsLTEuMjMgMC42NywtMC44MiAxLC0xLjk1IDEsLTMuMzggeiIvPiYjeGE7JiN4YTs8cGF0aCBpZD0icGF0aDEwNDU2NiIgaW5rc2NhcGU6Y29ubmVjdG9yLWN1cnZhdHVyZT0iMCIgc3R5bGU9ImZpbGw6I2ZmZmZmZiIgZD0iTSA0Mi4zOSw0My4yIEggMzMuNzQgViAyOC42NyBoIDMuMjcgdiAxMS44OCBoIDUuMzggeiIvPiYjeGE7PC9zdmc+;" vertex="1" parent="1">
          <mxGeometry x="584" y="120" width="46" height="61" as="geometry" />
        </mxCell>
        <mxCell id="68YzYJUB7aVhe4MOimAx-8" value="&lt;b&gt;&lt;font color=&quot;#000000&quot; style=&quot;font-size: 10px;&quot;&gt;Service&lt;/font&gt;&lt;/b&gt;" style="text;html=1;align=center;verticalAlign=middle;whiteSpace=wrap;rounded=0;fillColor=#FFFF33;fillStyle=solid;" vertex="1" parent="1">
          <mxGeometry x="630" y="70" width="40" height="20" as="geometry" />
        </mxCell>
        <mxCell id="68YzYJUB7aVhe4MOimAx-11" value="" style="sketch=0;pointerEvents=1;shadow=0;dashed=0;html=1;strokeColor=none;fillColor=#505050;labelPosition=center;verticalLabelPosition=bottom;verticalAlign=top;outlineConnect=0;align=center;shape=mxgraph.office.devices.hard_disk;" vertex="1" parent="1">
          <mxGeometry x="679" y="123" width="40" height="54" as="geometry" />
        </mxCell>
        <mxCell id="68YzYJUB7aVhe4MOimAx-15" value="Container" style="text;align=center;html=1;verticalAlign=middle;whiteSpace=wrap;rounded=0;fontColor=#000000;" vertex="1" parent="1">
          <mxGeometry x="364" y="86.5" width="60" height="30" as="geometry" />
        </mxCell>
        <mxCell id="68YzYJUB7aVhe4MOimAx-16" value="Container" style="text;align=center;html=1;verticalAlign=middle;whiteSpace=wrap;rounded=0;fontColor=#000000;" vertex="1" parent="1">
          <mxGeometry x="577" y="96.5" width="60" height="30" as="geometry" />
        </mxCell>
        <mxCell id="68YzYJUB7aVhe4MOimAx-17" value="Volume&lt;br&gt;ext. mount" style="text;align=center;html=1;verticalAlign=middle;whiteSpace=wrap;rounded=0;fontColor=#000000;" vertex="1" parent="1">
          <mxGeometry x="669" y="178.5" width="60" height="30" as="geometry" />
        </mxCell>
        <mxCell id="68YzYJUB7aVhe4MOimAx-18" value="" style="sketch=0;html=1;dashed=0;whitespace=wrap;fillColor=#2875E2;strokeColor=#ffffff;points=[[0.005,0.63,0],[0.1,0.2,0],[0.9,0.2,0],[0.5,0,0],[0.995,0.63,0],[0.72,0.99,0],[0.5,1,0],[0.28,0.99,0]];verticalLabelPosition=bottom;align=center;verticalAlign=top;shape=mxgraph.kubernetes.icon;prIcon=kubelet" vertex="1" parent="1">
          <mxGeometry x="527" y="209" width="50" height="48" as="geometry" />
        </mxCell>
        <mxCell id="68YzYJUB7aVhe4MOimAx-29" style="edgeStyle=orthogonalEdgeStyle;rounded=0;orthogonalLoop=1;jettySize=auto;html=1;exitX=0.5;exitY=1;exitDx=0;exitDy=0;entryX=0.536;entryY=0.02;entryDx=0;entryDy=0;entryPerimeter=0;" edge="1" parent="1" source="68YzYJUB7aVhe4MOimAx-25" target="68YzYJUB7aVhe4MOimAx-27">
          <mxGeometry relative="1" as="geometry" />
        </mxCell>
        <mxCell id="68YzYJUB7aVhe4MOimAx-25" value="&lt;font style=&quot;font-size: 24px;&quot;&gt;Ingress&lt;/font&gt;" style="ellipse;whiteSpace=wrap;html=1;" vertex="1" parent="1">
          <mxGeometry x="650" y="-216" width="120" height="80" as="geometry" />
        </mxCell>
        <mxCell id="68YzYJUB7aVhe4MOimAx-76" style="edgeStyle=orthogonalEdgeStyle;rounded=0;orthogonalLoop=1;jettySize=auto;html=1;exitX=1;exitY=0.5;exitDx=0;exitDy=0;entryX=0.5;entryY=0;entryDx=0;entryDy=0;" edge="1" parent="1" source="68YzYJUB7aVhe4MOimAx-26" target="r2ZMJQZ2ZS2uarGRFzwT-21">
          <mxGeometry relative="1" as="geometry" />
        </mxCell>
        <mxCell id="68YzYJUB7aVhe4MOimAx-26" value="" style="triangle;whiteSpace=wrap;html=1;rotation=90;" vertex="1" parent="1">
          <mxGeometry x="679" y="-120" width="60" height="80" as="geometry" />
        </mxCell>
        <mxCell id="68YzYJUB7aVhe4MOimAx-27" value="Routing&lt;br&gt;Rule" style="text;html=1;align=center;verticalAlign=middle;resizable=0;points=[];autosize=1;strokeColor=none;fillColor=none;" vertex="1" parent="1">
          <mxGeometry x="679" y="-110" width="60" height="40" as="geometry" />
        </mxCell>
        <mxCell id="68YzYJUB7aVhe4MOimAx-30" value="" style="endArrow=classic;startArrow=classic;html=1;rounded=0;exitX=1;exitY=0.5;exitDx=0;exitDy=0;entryX=0;entryY=0.5;entryDx=0;entryDy=0;" edge="1" parent="1" source="r2ZMJQZ2ZS2uarGRFzwT-21" target="68YzYJUB7aVhe4MOimAx-8">
          <mxGeometry width="50" height="50" relative="1" as="geometry">
            <mxPoint x="810" y="30" as="sourcePoint" />
            <mxPoint x="860" y="-20" as="targetPoint" />
          </mxGeometry>
        </mxCell>
        <mxCell id="68YzYJUB7aVhe4MOimAx-31" value="&lt;font style=&quot;font-size: 6px;&quot;&gt;CONFIG&lt;br&gt;MAP&lt;/font&gt;" style="whiteSpace=wrap;html=1;shape=mxgraph.basic.document" vertex="1" parent="1">
          <mxGeometry x="494" y="161" width="32.63" height="43.5" as="geometry" />
        </mxCell>
        <mxCell id="68YzYJUB7aVhe4MOimAx-33" value="" style="rounded=1;whiteSpace=wrap;html=1;fillColor=none;" vertex="1" parent="1">
          <mxGeometry x="850" y="60" width="430" height="210" as="geometry" />
        </mxCell>
        <mxCell id="68YzYJUB7aVhe4MOimAx-34" value="" style="rounded=1;whiteSpace=wrap;html=1;fillColor=#D5E8D4;strokeColor=#82B366;" vertex="1" parent="1">
          <mxGeometry x="1080" y="90.5" width="170" height="120" as="geometry" />
        </mxCell>
        <mxCell id="68YzYJUB7aVhe4MOimAx-35" value="" style="rounded=1;whiteSpace=wrap;html=1;fillColor=#D5E8D4;strokeColor=#82B366;" vertex="1" parent="1">
          <mxGeometry x="870" y="90" width="170" height="120" as="geometry" />
        </mxCell>
        <mxCell id="68YzYJUB7aVhe4MOimAx-36" value="&lt;font color=&quot;#000000&quot;&gt;Portfolio&lt;br&gt;web&lt;br&gt;app&lt;/font&gt;" style="rounded=0;whiteSpace=wrap;html=1;fillColor=#fff2cc;strokeColor=#d6b656;" vertex="1" parent="1">
          <mxGeometry x="874" y="110.25" width="130" height="57.5" as="geometry" />
        </mxCell>
        <mxCell id="68YzYJUB7aVhe4MOimAx-37" value="&lt;b&gt;Pod&lt;/b&gt;" style="text;html=1;strokeColor=none;fillColor=none;align=center;verticalAlign=middle;whiteSpace=wrap;rounded=0;" vertex="1" parent="1">
          <mxGeometry x="935" y="210" width="40" height="20" as="geometry" />
        </mxCell>
        <mxCell id="68YzYJUB7aVhe4MOimAx-38" value="&lt;b&gt;&lt;font color=&quot;#000000&quot; style=&quot;font-size: 10px;&quot;&gt;Service&lt;/font&gt;&lt;/b&gt;" style="text;html=1;align=center;verticalAlign=middle;whiteSpace=wrap;rounded=0;fillColor=#FFFF33;fillStyle=solid;" vertex="1" parent="1">
          <mxGeometry x="935" y="70" width="40" height="20" as="geometry" />
        </mxCell>
        <mxCell id="68YzYJUB7aVhe4MOimAx-39" value="&lt;b&gt;Pod&lt;/b&gt;" style="text;html=1;strokeColor=none;fillColor=none;align=center;verticalAlign=middle;whiteSpace=wrap;rounded=0;" vertex="1" parent="1">
          <mxGeometry x="1140" y="210" width="40" height="20" as="geometry" />
        </mxCell>
        <mxCell id="68YzYJUB7aVhe4MOimAx-40" value="" style="shape=image;verticalLabelPosition=bottom;labelBackgroundColor=#ffffff;verticalAlign=top;aspect=fixed;imageAspect=0;image=data:image/svg+xml,PHN2ZyB4bWxuczpkYz0iaHR0cDovL3B1cmwub3JnL2RjL2VsZW1lbnRzLzEuMS8iIHhtbG5zOmNjPSJodHRwOi8vY3JlYXRpdmVjb21tb25zLm9yZy9ucyMiIHhtbG5zOnJkZj0iaHR0cDovL3d3dy53My5vcmcvMTk5OS8wMi8yMi1yZGYtc3ludGF4LW5zIyIgeG1sbnM6c3ZnPSJodHRwOi8vd3d3LnczLm9yZy8yMDAwL3N2ZyIgeG1sbnM9Imh0dHA6Ly93d3cudzMub3JnLzIwMDAvc3ZnIiB4bWxuczpzb2RpcG9kaT0iaHR0cDovL3NvZGlwb2RpLnNvdXJjZWZvcmdlLm5ldC9EVEQvc29kaXBvZGktMC5kdGQiIHhtbG5zOmlua3NjYXBlPSJodHRwOi8vd3d3Lmlua3NjYXBlLm9yZy9uYW1lc3BhY2VzL2lua3NjYXBlIiB2ZXJzaW9uPSIxLjEiIGlkPSJzdmcxMDQ1NzIiIGlua3NjYXBlOnZlcnNpb249IjAuOTIuMyAoMjQwNTU0NiwgMjAxOC0wMy0xMSkiIHNvZGlwb2RpOmRvY25hbWU9InNxbC5zdmciIHg9IjBweCIgeT0iMHB4IiB2aWV3Qm94PSIwIDAgNDYuMDMgNjEuMDIiIHhtbDpzcGFjZT0icHJlc2VydmUiIHdpZHRoPSI0Ni4wMjk5OTkiIGhlaWdodD0iNjEuMDIiPjxtZXRhZGF0YSBpZD0ibWV0YWRhdGExMDQ4Ij48cmRmOlJERj48Y2M6V29yayByZGY6YWJvdXQ9IiI+PGRjOmZvcm1hdD5pbWFnZS9zdmcreG1sPC9kYzpmb3JtYXQ+PGRjOnR5cGUgcmRmOnJlc291cmNlPSJodHRwOi8vcHVybC5vcmcvZGMvZGNtaXR5cGUvU3RpbGxJbWFnZSIvPjxkYzp0aXRsZS8+PC9jYzpXb3JrPjwvcmRmOlJERj48L21ldGFkYXRhPjxkZWZzIGlkPSJkZWZzMTA0NiI+JiN4YTsJJiN4YTsmI3hhOwkmI3hhOyYjeGE7CSYjeGE7JiN4YTsJJiN4YTsmI3hhOwkmI3hhOyYjeGE7CSYjeGE7JiN4YTsJJiN4YTsmI3hhOwkmI3hhOyYjeGE7CSYjeGE7JiN4YTsJCSYjeGE7CSYjeGE7CQkmI3hhOwkmI3hhOwkJJiN4YTsJJiN4YTsJCSYjeGE7CSYjeGE7CQkmI3hhOwkmI3hhOwkJJiN4YTsJJiN4YTsJCSYjeGE7CSYjeGE7CQkmI3hhOwk8L2RlZnM+JiN4YTs8ZmlsdGVyIGlkPSJmaWx0ZXJfMiI+JiN4YTsJPGZlR2F1c3NpYW5CbHVyIGlkPSJmZUdhdXNzaWFuQmx1cjEwNDQ4OSIgc3RkRGV2aWF0aW9uPSIyIi8+JiN4YTs8L2ZpbHRlcj4mI3hhOzxzb2RpcG9kaTpuYW1lZHZpZXcgYm9yZGVyY29sb3I9IiM2NjY2NjYiIGJvcmRlcm9wYWNpdHk9IjEiIGZpdC1tYXJnaW4tYm90dG9tPSIwIiBmaXQtbWFyZ2luLWxlZnQ9IjAiIGZpdC1tYXJnaW4tcmlnaHQ9IjAiIGZpdC1tYXJnaW4tdG9wPSIwIiBncmlkdG9sZXJhbmNlPSIxMCIgZ3VpZGV0b2xlcmFuY2U9IjEwIiBpZD0ibmFtZWR2aWV3MTA0NTc0IiBpbmtzY2FwZTpjdXJyZW50LWxheWVyPSJzdmcxMDQ1NzIiIGlua3NjYXBlOmN4PSIwLjI3NDc3MzkyIiBpbmtzY2FwZTpjeT0iMjcuOTI1ODA5IiBpbmtzY2FwZTpwYWdlb3BhY2l0eT0iMCIgaW5rc2NhcGU6cGFnZXNoYWRvdz0iMiIgaW5rc2NhcGU6d2luZG93LWhlaWdodD0iMTAxNyIgaW5rc2NhcGU6d2luZG93LW1heGltaXplZD0iMSIgaW5rc2NhcGU6d2luZG93LXdpZHRoPSIxOTIwIiBpbmtzY2FwZTp3aW5kb3cteD0iLTgiIGlua3NjYXBlOndpbmRvdy15PSItOCIgaW5rc2NhcGU6em9vbT0iNy42MDUyNjMyIiBvYmplY3R0b2xlcmFuY2U9IjEwIiBwYWdlY29sb3I9IiNmZmZmZmYiIHNob3dncmlkPSJmYWxzZSI+JiN4YTsJPC9zb2RpcG9kaTpuYW1lZHZpZXc+JiN4YTsmI3hhOzxwYXRoIGlkPSJwYXRoMTA0NTAyIiBpbmtzY2FwZTpjb25uZWN0b3ItY3VydmF0dXJlPSIwIiBzdHlsZT0iZmlsbDojMDA3MmM2IiBkPSJtIDAsOC4zNCB2IDQ0LjM0IGMgMCw0LjYxIDEwLjMxLDguMzQgMjMuMDIsOC4zNCBWIDguMzQgWiIvPiYjeGE7JiN4YTs8cGF0aCBpZD0icGF0aDEwNDUxMCIgaW5rc2NhcGU6Y29ubmVjdG9yLWN1cnZhdHVyZT0iMCIgc3R5bGU9ImZpbGw6IzAwNzJjNiIgZD0ibSAyMi43LDYxLjAyIGggMC4zMiBjIDEyLjcxLDAgMjMuMDEsLTMuNzMgMjMuMDEsLTguMzQgViA4LjM0IEggMjIuNyBaIi8+JiN4YTsmI3hhOzxwYXRoIGlkPSJwYXRoMTA0NTE4IiBpbmtzY2FwZTpjb25uZWN0b3ItY3VydmF0dXJlPSIwIiBzdHlsZT0iZmlsbDojZmZmZmZmO2ZpbGwtb3BhY2l0eTowLjE1IiBkPSJtIDIyLjcsNjEuMDIgaCAwLjMyIGMgMTIuNzEsMCAyMy4wMSwtMy43MyAyMy4wMSwtOC4zNCBWIDguMzQgSCAyMi43IFoiLz4mI3hhOyYjeGE7PHBhdGggaWQ9InBhdGgxMDQ1MjYiIGlua3NjYXBlOmNvbm5lY3Rvci1jdXJ2YXR1cmU9IjAiIHN0eWxlPSJmaWxsOiNmZmZmZmYiIGQ9Im0gNDYuMDMsOC4zMyBjIDAsNC42MSAtMTAuMyw4LjM0IC0yMy4wMSw4LjM0IEMgMTAuMzEsMTYuNjcgMCwxMi45NCAwLDguMzMgMCwzLjczIDEwLjMxLDAgMjMuMDIsMCAzNS43MywwIDQ2LjAzLDMuNzMgNDYuMDMsOC4zMyBaIi8+JiN4YTsmI3hhOzxwYXRoIGlkPSJwYXRoMTA0NTM0IiBpbmtzY2FwZTpjb25uZWN0b3ItY3VydmF0dXJlPSIwIiBzdHlsZT0iZmlsbDojN2ZiYTAwIiBkPSJtIDQxLjMyLDcuODUgYyAwLDMuMDQgLTguMTksNS41IC0xOC4zMSw1LjUgLTEwLjExLDAgLTE4LjMxLC0yLjQ2IC0xOC4zMSwtNS41IDAsLTMuMDQgOC4yLC01LjUgMTguMzEsLTUuNSAxMC4xMiwwIDE4LjMxLDIuNDYgMTguMzEsNS41IHoiLz4mI3hhOyYjeGE7PHBhdGggaWQ9InBhdGgxMDQ1NDIiIGlua3NjYXBlOmNvbm5lY3Rvci1jdXJ2YXR1cmU9IjAiIHN0eWxlPSJmaWxsOiNiOGQ0MzIiIGQ9Im0gMzcuNSwxMS4yMSBjIDIuMzksLTAuOTMgMy44MywtMi4wOSAzLjgzLC0zLjM2IDAsLTMuMDQgLTguMTksLTUuNSAtMTguMzEsLTUuNSAtMTAuMTEsMCAtMTguMzEsMi40NiAtMTguMzEsNS41IDAsMS4yNyAxLjQ0LDIuNDMgMy44NCwzLjM2IDMuMzUsLTEuMyA4LjU4LC0yLjE0IDE0LjQ3LC0yLjE0IDUuOSwwIDExLjEzLDAuODQgMTQuNDgsMi4xNCB6Ii8+JiN4YTsmI3hhOzxwYXRoIGlkPSJwYXRoMTA0NTUwIiBpbmtzY2FwZTpjb25uZWN0b3ItY3VydmF0dXJlPSIwIiBzdHlsZT0iZmlsbDojZmZmZmZmIiBkPSJtIDE1LjcxLDM5LjExIGMgMCwxLjM4IC0wLjUsMi40NSAtMS41LDMuMjEgLTEsMC43NSAtMi4zOCwxLjEzIC00LjE0LDEuMTMgLTEuNSwwIC0yLjc1LC0wLjI3IC0zLjc2LC0wLjgxIFYgMzkuNCBjIDEuMTYsMC45OCAyLjQ0LDEuNDggMy44NCwxLjQ4IDAuNjcsMCAxLjIsLTAuMTQgMS41NiwtMC40MSAwLjM3LC0wLjI3IDAuNTYsLTAuNjMgMC41NiwtMS4wNyAwLC0wLjQ0IC0wLjE4LC0wLjgyIC0wLjUzLC0xLjE1IEMgMTEuMzgsMzcuOTMgMTAuNjYsMzcuNTEgOS41NywzNyA3LjM2LDM1Ljk2IDYuMjUsMzQuNTQgNi4yNSwzMi43NCBjIDAsLTEuMyAwLjQ4LC0yLjM1IDEuNDUsLTMuMTMgMC45NiwtMC43OSAyLjI1LC0xLjE4IDMuODUsLTEuMTggMS40MiwwIDIuNTksMC4xOCAzLjUyLDAuNTUgdiAzLjAzIEMgMTQuMDksMzEuMzQgMTIuOTgsMzEgMTEuNzMsMzEgYyAtMC42MywwIC0xLjEyLDAuMTMgLTEuNDksMC40IC0wLjM2LDAuMjcgLTAuNTQsMC42MiAtMC41NCwxLjA3IDAsMC40NiAwLjE0LDAuODMgMC40NCwxLjEzIDAuMjksMC4yOSAwLjg5LDAuNjUgMS44LDEuMDkgMS4zNiwwLjY0IDIuMzMsMS4yOSAyLjkxLDEuOTUgMC41NywwLjY2IDAuODYsMS40OSAwLjg2LDIuNDcgeiIvPiYjeGE7JiN4YTs8cGF0aCBpZD0icGF0aDEwNDU1OCIgaW5rc2NhcGU6Y29ubmVjdG9yLWN1cnZhdHVyZT0iMCIgc3R5bGU9ImZpbGw6I2ZmZmZmZiIgZD0ibSAzMS4zMywzNS44NCBjIDAsMS43MSAtMC4zOSwzLjE5IC0xLjE2LDQuNDUgLTAuNzgsMS4yNSAtMS44NywyLjEzIC0zLjI4LDIuNjQgbCA0LjIxLDMuOSBoIC00LjI1IGwgLTMuMDEsLTMuMzcgYyAtMS4yOSwtMC4wNSAtMi40NiwtMC4zOSAtMy40OSwtMS4wMyAtMS4wNCwtMC42MyAtMS44NCwtMS41IC0yLjQsLTIuNjEgLTAuNTcsLTEuMSAtMC44NSwtMi4zMyAtMC44NSwtMy42OSAwLC0xLjUgMC4zMSwtMi44NSAwLjkyLC00LjAyIDAuNjEsLTEuMTggMS40NywtMi4wOSAyLjU3LC0yLjcyIDEuMTEsLTAuNjQgMi4zOCwtMC45NiAzLjgxLC0wLjk2IDEuMzQsMCAyLjU0LDAuMzEgMy41OSwwLjkzIDEuMDYsMC42MSAxLjg4LDEuNDggMi40NywyLjYyIDAuNTgsMS4xMyAwLjg3LDIuNDIgMC44NywzLjg2IHogbSAtMy40NCwwLjE4IGMgMCwtMS40NyAtMC4zMiwtMi42MyAtMC45NiwtMy40OSAtMC42NSwtMC44NSAtMS41MiwtMS4yOCAtMi42NCwtMS4yOCAtMS4xMywwIC0yLjA0LDAuNDMgLTIuNzIsMS4yOSAtMC42OCwwLjg1IC0xLjAzLDEuOTkgLTEuMDMsMy40MiAwLDEuNDIgMC4zNCwyLjU1IDEuMDEsMy40IDAuNjcsMC44NCAxLjU1LDEuMjcgMi42NiwxLjI3IDEuMTMsMCAyLjAyLC0wLjQxIDIuNjgsLTEuMjMgMC42NywtMC44MiAxLC0xLjk1IDEsLTMuMzggeiIvPiYjeGE7JiN4YTs8cGF0aCBpZD0icGF0aDEwNDU2NiIgaW5rc2NhcGU6Y29ubmVjdG9yLWN1cnZhdHVyZT0iMCIgc3R5bGU9ImZpbGw6I2ZmZmZmZiIgZD0iTSA0Mi4zOSw0My4yIEggMzMuNzQgViAyOC42NyBoIDMuMjcgdiAxMS44OCBoIDUuMzggeiIvPiYjeGE7PC9zdmc+;" vertex="1" parent="1">
          <mxGeometry x="1094" y="120" width="46" height="61" as="geometry" />
        </mxCell>
        <mxCell id="68YzYJUB7aVhe4MOimAx-41" value="&lt;b&gt;&lt;font color=&quot;#000000&quot; style=&quot;font-size: 10px;&quot;&gt;Service&lt;/font&gt;&lt;/b&gt;" style="text;html=1;align=center;verticalAlign=middle;whiteSpace=wrap;rounded=0;fillColor=#FFFF33;fillStyle=solid;" vertex="1" parent="1">
          <mxGeometry x="1140" y="70" width="40" height="20" as="geometry" />
        </mxCell>
        <mxCell id="68YzYJUB7aVhe4MOimAx-42" value="" style="sketch=0;pointerEvents=1;shadow=0;dashed=0;html=1;strokeColor=none;fillColor=#505050;labelPosition=center;verticalLabelPosition=bottom;verticalAlign=top;outlineConnect=0;align=center;shape=mxgraph.office.devices.hard_disk;" vertex="1" parent="1">
          <mxGeometry x="1189" y="123" width="40" height="54" as="geometry" />
        </mxCell>
        <mxCell id="68YzYJUB7aVhe4MOimAx-43" value="Container" style="text;align=center;html=1;verticalAlign=middle;whiteSpace=wrap;rounded=0;fontColor=#000000;" vertex="1" parent="1">
          <mxGeometry x="874" y="86.5" width="60" height="30" as="geometry" />
        </mxCell>
        <mxCell id="68YzYJUB7aVhe4MOimAx-44" value="Container" style="text;align=center;html=1;verticalAlign=middle;whiteSpace=wrap;rounded=0;fontColor=#000000;" vertex="1" parent="1">
          <mxGeometry x="1087" y="96.5" width="60" height="30" as="geometry" />
        </mxCell>
        <mxCell id="68YzYJUB7aVhe4MOimAx-45" value="Volume&lt;br&gt;ext. mount" style="text;align=center;html=1;verticalAlign=middle;whiteSpace=wrap;rounded=0;fontColor=#000000;" vertex="1" parent="1">
          <mxGeometry x="1179" y="178.5" width="60" height="30" as="geometry" />
        </mxCell>
        <mxCell id="68YzYJUB7aVhe4MOimAx-46" value="" style="sketch=0;html=1;dashed=0;whitespace=wrap;fillColor=#2875E2;strokeColor=#ffffff;points=[[0.005,0.63,0],[0.1,0.2,0],[0.9,0.2,0],[0.5,0,0],[0.995,0.63,0],[0.72,0.99,0],[0.5,1,0],[0.28,0.99,0]];verticalLabelPosition=bottom;align=center;verticalAlign=top;shape=mxgraph.kubernetes.icon;prIcon=kubelet" vertex="1" parent="1">
          <mxGeometry x="1037" y="209" width="50" height="48" as="geometry" />
        </mxCell>
        <mxCell id="68YzYJUB7aVhe4MOimAx-47" value="" style="endArrow=classic;startArrow=classic;html=1;rounded=0;exitX=1;exitY=0.5;exitDx=0;exitDy=0;entryX=0;entryY=0.5;entryDx=0;entryDy=0;" edge="1" source="68YzYJUB7aVhe4MOimAx-38" target="68YzYJUB7aVhe4MOimAx-41" parent="1">
          <mxGeometry width="50" height="50" relative="1" as="geometry">
            <mxPoint x="1320" y="30" as="sourcePoint" />
            <mxPoint x="1370" y="-20" as="targetPoint" />
          </mxGeometry>
        </mxCell>
        <mxCell id="68YzYJUB7aVhe4MOimAx-48" value="&lt;font style=&quot;font-size: 6px;&quot;&gt;CONFIG&lt;br&gt;MAP&lt;/font&gt;" style="whiteSpace=wrap;html=1;shape=mxgraph.basic.document" vertex="1" parent="1">
          <mxGeometry x="1004" y="161" width="32.63" height="43.5" as="geometry" />
        </mxCell>
        <mxCell id="68YzYJUB7aVhe4MOimAx-49" value="" style="rounded=1;whiteSpace=wrap;html=1;fillColor=none;" vertex="1" parent="1">
          <mxGeometry x="1340" y="60" width="430" height="210" as="geometry" />
        </mxCell>
        <mxCell id="68YzYJUB7aVhe4MOimAx-50" value="" style="rounded=1;whiteSpace=wrap;html=1;fillColor=#D5E8D4;strokeColor=#82B366;" vertex="1" parent="1">
          <mxGeometry x="1570" y="90.5" width="170" height="120" as="geometry" />
        </mxCell>
        <mxCell id="68YzYJUB7aVhe4MOimAx-51" value="" style="rounded=1;whiteSpace=wrap;html=1;fillColor=#D5E8D4;strokeColor=#82B366;" vertex="1" parent="1">
          <mxGeometry x="1360" y="90" width="170" height="120" as="geometry" />
        </mxCell>
        <mxCell id="68YzYJUB7aVhe4MOimAx-52" value="&lt;font color=&quot;#000000&quot;&gt;Portfolio&lt;br&gt;web&lt;br&gt;app&lt;/font&gt;" style="rounded=0;whiteSpace=wrap;html=1;fillColor=#fff2cc;strokeColor=#d6b656;" vertex="1" parent="1">
          <mxGeometry x="1364" y="110.25" width="130" height="57.5" as="geometry" />
        </mxCell>
        <mxCell id="68YzYJUB7aVhe4MOimAx-53" value="&lt;b&gt;Pod&lt;/b&gt;" style="text;html=1;strokeColor=none;fillColor=none;align=center;verticalAlign=middle;whiteSpace=wrap;rounded=0;" vertex="1" parent="1">
          <mxGeometry x="1425" y="210" width="40" height="20" as="geometry" />
        </mxCell>
        <mxCell id="68YzYJUB7aVhe4MOimAx-54" value="&lt;b&gt;&lt;font color=&quot;#000000&quot; style=&quot;font-size: 10px;&quot;&gt;Service&lt;/font&gt;&lt;/b&gt;" style="text;html=1;align=center;verticalAlign=middle;whiteSpace=wrap;rounded=0;fillColor=#FFFF33;fillStyle=solid;" vertex="1" parent="1">
          <mxGeometry x="1425" y="70" width="40" height="20" as="geometry" />
        </mxCell>
        <mxCell id="68YzYJUB7aVhe4MOimAx-55" value="&lt;b&gt;Pod&lt;/b&gt;" style="text;html=1;strokeColor=none;fillColor=none;align=center;verticalAlign=middle;whiteSpace=wrap;rounded=0;" vertex="1" parent="1">
          <mxGeometry x="1630" y="210" width="40" height="20" as="geometry" />
        </mxCell>
        <mxCell id="68YzYJUB7aVhe4MOimAx-56" value="" style="shape=image;verticalLabelPosition=bottom;labelBackgroundColor=#ffffff;verticalAlign=top;aspect=fixed;imageAspect=0;image=data:image/svg+xml,PHN2ZyB4bWxuczpkYz0iaHR0cDovL3B1cmwub3JnL2RjL2VsZW1lbnRzLzEuMS8iIHhtbG5zOmNjPSJodHRwOi8vY3JlYXRpdmVjb21tb25zLm9yZy9ucyMiIHhtbG5zOnJkZj0iaHR0cDovL3d3dy53My5vcmcvMTk5OS8wMi8yMi1yZGYtc3ludGF4LW5zIyIgeG1sbnM6c3ZnPSJodHRwOi8vd3d3LnczLm9yZy8yMDAwL3N2ZyIgeG1sbnM9Imh0dHA6Ly93d3cudzMub3JnLzIwMDAvc3ZnIiB4bWxuczpzb2RpcG9kaT0iaHR0cDovL3NvZGlwb2RpLnNvdXJjZWZvcmdlLm5ldC9EVEQvc29kaXBvZGktMC5kdGQiIHhtbG5zOmlua3NjYXBlPSJodHRwOi8vd3d3Lmlua3NjYXBlLm9yZy9uYW1lc3BhY2VzL2lua3NjYXBlIiB2ZXJzaW9uPSIxLjEiIGlkPSJzdmcxMDQ1NzIiIGlua3NjYXBlOnZlcnNpb249IjAuOTIuMyAoMjQwNTU0NiwgMjAxOC0wMy0xMSkiIHNvZGlwb2RpOmRvY25hbWU9InNxbC5zdmciIHg9IjBweCIgeT0iMHB4IiB2aWV3Qm94PSIwIDAgNDYuMDMgNjEuMDIiIHhtbDpzcGFjZT0icHJlc2VydmUiIHdpZHRoPSI0Ni4wMjk5OTkiIGhlaWdodD0iNjEuMDIiPjxtZXRhZGF0YSBpZD0ibWV0YWRhdGExMDQ4Ij48cmRmOlJERj48Y2M6V29yayByZGY6YWJvdXQ9IiI+PGRjOmZvcm1hdD5pbWFnZS9zdmcreG1sPC9kYzpmb3JtYXQ+PGRjOnR5cGUgcmRmOnJlc291cmNlPSJodHRwOi8vcHVybC5vcmcvZGMvZGNtaXR5cGUvU3RpbGxJbWFnZSIvPjxkYzp0aXRsZS8+PC9jYzpXb3JrPjwvcmRmOlJERj48L21ldGFkYXRhPjxkZWZzIGlkPSJkZWZzMTA0NiI+JiN4YTsJJiN4YTsmI3hhOwkmI3hhOyYjeGE7CSYjeGE7JiN4YTsJJiN4YTsmI3hhOwkmI3hhOyYjeGE7CSYjeGE7JiN4YTsJJiN4YTsmI3hhOwkmI3hhOyYjeGE7CSYjeGE7JiN4YTsJCSYjeGE7CSYjeGE7CQkmI3hhOwkmI3hhOwkJJiN4YTsJJiN4YTsJCSYjeGE7CSYjeGE7CQkmI3hhOwkmI3hhOwkJJiN4YTsJJiN4YTsJCSYjeGE7CSYjeGE7CQkmI3hhOwk8L2RlZnM+JiN4YTs8ZmlsdGVyIGlkPSJmaWx0ZXJfMiI+JiN4YTsJPGZlR2F1c3NpYW5CbHVyIGlkPSJmZUdhdXNzaWFuQmx1cjEwNDQ4OSIgc3RkRGV2aWF0aW9uPSIyIi8+JiN4YTs8L2ZpbHRlcj4mI3hhOzxzb2RpcG9kaTpuYW1lZHZpZXcgYm9yZGVyY29sb3I9IiM2NjY2NjYiIGJvcmRlcm9wYWNpdHk9IjEiIGZpdC1tYXJnaW4tYm90dG9tPSIwIiBmaXQtbWFyZ2luLWxlZnQ9IjAiIGZpdC1tYXJnaW4tcmlnaHQ9IjAiIGZpdC1tYXJnaW4tdG9wPSIwIiBncmlkdG9sZXJhbmNlPSIxMCIgZ3VpZGV0b2xlcmFuY2U9IjEwIiBpZD0ibmFtZWR2aWV3MTA0NTc0IiBpbmtzY2FwZTpjdXJyZW50LWxheWVyPSJzdmcxMDQ1NzIiIGlua3NjYXBlOmN4PSIwLjI3NDc3MzkyIiBpbmtzY2FwZTpjeT0iMjcuOTI1ODA5IiBpbmtzY2FwZTpwYWdlb3BhY2l0eT0iMCIgaW5rc2NhcGU6cGFnZXNoYWRvdz0iMiIgaW5rc2NhcGU6d2luZG93LWhlaWdodD0iMTAxNyIgaW5rc2NhcGU6d2luZG93LW1heGltaXplZD0iMSIgaW5rc2NhcGU6d2luZG93LXdpZHRoPSIxOTIwIiBpbmtzY2FwZTp3aW5kb3cteD0iLTgiIGlua3NjYXBlOndpbmRvdy15PSItOCIgaW5rc2NhcGU6em9vbT0iNy42MDUyNjMyIiBvYmplY3R0b2xlcmFuY2U9IjEwIiBwYWdlY29sb3I9IiNmZmZmZmYiIHNob3dncmlkPSJmYWxzZSI+JiN4YTsJPC9zb2RpcG9kaTpuYW1lZHZpZXc+JiN4YTsmI3hhOzxwYXRoIGlkPSJwYXRoMTA0NTAyIiBpbmtzY2FwZTpjb25uZWN0b3ItY3VydmF0dXJlPSIwIiBzdHlsZT0iZmlsbDojMDA3MmM2IiBkPSJtIDAsOC4zNCB2IDQ0LjM0IGMgMCw0LjYxIDEwLjMxLDguMzQgMjMuMDIsOC4zNCBWIDguMzQgWiIvPiYjeGE7JiN4YTs8cGF0aCBpZD0icGF0aDEwNDUxMCIgaW5rc2NhcGU6Y29ubmVjdG9yLWN1cnZhdHVyZT0iMCIgc3R5bGU9ImZpbGw6IzAwNzJjNiIgZD0ibSAyMi43LDYxLjAyIGggMC4zMiBjIDEyLjcxLDAgMjMuMDEsLTMuNzMgMjMuMDEsLTguMzQgViA4LjM0IEggMjIuNyBaIi8+JiN4YTsmI3hhOzxwYXRoIGlkPSJwYXRoMTA0NTE4IiBpbmtzY2FwZTpjb25uZWN0b3ItY3VydmF0dXJlPSIwIiBzdHlsZT0iZmlsbDojZmZmZmZmO2ZpbGwtb3BhY2l0eTowLjE1IiBkPSJtIDIyLjcsNjEuMDIgaCAwLjMyIGMgMTIuNzEsMCAyMy4wMSwtMy43MyAyMy4wMSwtOC4zNCBWIDguMzQgSCAyMi43IFoiLz4mI3hhOyYjeGE7PHBhdGggaWQ9InBhdGgxMDQ1MjYiIGlua3NjYXBlOmNvbm5lY3Rvci1jdXJ2YXR1cmU9IjAiIHN0eWxlPSJmaWxsOiNmZmZmZmYiIGQ9Im0gNDYuMDMsOC4zMyBjIDAsNC42MSAtMTAuMyw4LjM0IC0yMy4wMSw4LjM0IEMgMTAuMzEsMTYuNjcgMCwxMi45NCAwLDguMzMgMCwzLjczIDEwLjMxLDAgMjMuMDIsMCAzNS43MywwIDQ2LjAzLDMuNzMgNDYuMDMsOC4zMyBaIi8+JiN4YTsmI3hhOzxwYXRoIGlkPSJwYXRoMTA0NTM0IiBpbmtzY2FwZTpjb25uZWN0b3ItY3VydmF0dXJlPSIwIiBzdHlsZT0iZmlsbDojN2ZiYTAwIiBkPSJtIDQxLjMyLDcuODUgYyAwLDMuMDQgLTguMTksNS41IC0xOC4zMSw1LjUgLTEwLjExLDAgLTE4LjMxLC0yLjQ2IC0xOC4zMSwtNS41IDAsLTMuMDQgOC4yLC01LjUgMTguMzEsLTUuNSAxMC4xMiwwIDE4LjMxLDIuNDYgMTguMzEsNS41IHoiLz4mI3hhOyYjeGE7PHBhdGggaWQ9InBhdGgxMDQ1NDIiIGlua3NjYXBlOmNvbm5lY3Rvci1jdXJ2YXR1cmU9IjAiIHN0eWxlPSJmaWxsOiNiOGQ0MzIiIGQ9Im0gMzcuNSwxMS4yMSBjIDIuMzksLTAuOTMgMy44MywtMi4wOSAzLjgzLC0zLjM2IDAsLTMuMDQgLTguMTksLTUuNSAtMTguMzEsLTUuNSAtMTAuMTEsMCAtMTguMzEsMi40NiAtMTguMzEsNS41IDAsMS4yNyAxLjQ0LDIuNDMgMy44NCwzLjM2IDMuMzUsLTEuMyA4LjU4LC0yLjE0IDE0LjQ3LC0yLjE0IDUuOSwwIDExLjEzLDAuODQgMTQuNDgsMi4xNCB6Ii8+JiN4YTsmI3hhOzxwYXRoIGlkPSJwYXRoMTA0NTUwIiBpbmtzY2FwZTpjb25uZWN0b3ItY3VydmF0dXJlPSIwIiBzdHlsZT0iZmlsbDojZmZmZmZmIiBkPSJtIDE1LjcxLDM5LjExIGMgMCwxLjM4IC0wLjUsMi40NSAtMS41LDMuMjEgLTEsMC43NSAtMi4zOCwxLjEzIC00LjE0LDEuMTMgLTEuNSwwIC0yLjc1LC0wLjI3IC0zLjc2LC0wLjgxIFYgMzkuNCBjIDEuMTYsMC45OCAyLjQ0LDEuNDggMy44NCwxLjQ4IDAuNjcsMCAxLjIsLTAuMTQgMS41NiwtMC40MSAwLjM3LC0wLjI3IDAuNTYsLTAuNjMgMC41NiwtMS4wNyAwLC0wLjQ0IC0wLjE4LC0wLjgyIC0wLjUzLC0xLjE1IEMgMTEuMzgsMzcuOTMgMTAuNjYsMzcuNTEgOS41NywzNyA3LjM2LDM1Ljk2IDYuMjUsMzQuNTQgNi4yNSwzMi43NCBjIDAsLTEuMyAwLjQ4LC0yLjM1IDEuNDUsLTMuMTMgMC45NiwtMC43OSAyLjI1LC0xLjE4IDMuODUsLTEuMTggMS40MiwwIDIuNTksMC4xOCAzLjUyLDAuNTUgdiAzLjAzIEMgMTQuMDksMzEuMzQgMTIuOTgsMzEgMTEuNzMsMzEgYyAtMC42MywwIC0xLjEyLDAuMTMgLTEuNDksMC40IC0wLjM2LDAuMjcgLTAuNTQsMC42MiAtMC41NCwxLjA3IDAsMC40NiAwLjE0LDAuODMgMC40NCwxLjEzIDAuMjksMC4yOSAwLjg5LDAuNjUgMS44LDEuMDkgMS4zNiwwLjY0IDIuMzMsMS4yOSAyLjkxLDEuOTUgMC41NywwLjY2IDAuODYsMS40OSAwLjg2LDIuNDcgeiIvPiYjeGE7JiN4YTs8cGF0aCBpZD0icGF0aDEwNDU1OCIgaW5rc2NhcGU6Y29ubmVjdG9yLWN1cnZhdHVyZT0iMCIgc3R5bGU9ImZpbGw6I2ZmZmZmZiIgZD0ibSAzMS4zMywzNS44NCBjIDAsMS43MSAtMC4zOSwzLjE5IC0xLjE2LDQuNDUgLTAuNzgsMS4yNSAtMS44NywyLjEzIC0zLjI4LDIuNjQgbCA0LjIxLDMuOSBoIC00LjI1IGwgLTMuMDEsLTMuMzcgYyAtMS4yOSwtMC4wNSAtMi40NiwtMC4zOSAtMy40OSwtMS4wMyAtMS4wNCwtMC42MyAtMS44NCwtMS41IC0yLjQsLTIuNjEgLTAuNTcsLTEuMSAtMC44NSwtMi4zMyAtMC44NSwtMy42OSAwLC0xLjUgMC4zMSwtMi44NSAwLjkyLC00LjAyIDAuNjEsLTEuMTggMS40NywtMi4wOSAyLjU3LC0yLjcyIDEuMTEsLTAuNjQgMi4zOCwtMC45NiAzLjgxLC0wLjk2IDEuMzQsMCAyLjU0LDAuMzEgMy41OSwwLjkzIDEuMDYsMC42MSAxLjg4LDEuNDggMi40NywyLjYyIDAuNTgsMS4xMyAwLjg3LDIuNDIgMC44NywzLjg2IHogbSAtMy40NCwwLjE4IGMgMCwtMS40NyAtMC4zMiwtMi42MyAtMC45NiwtMy40OSAtMC42NSwtMC44NSAtMS41MiwtMS4yOCAtMi42NCwtMS4yOCAtMS4xMywwIC0yLjA0LDAuNDMgLTIuNzIsMS4yOSAtMC42OCwwLjg1IC0xLjAzLDEuOTkgLTEuMDMsMy40MiAwLDEuNDIgMC4zNCwyLjU1IDEuMDEsMy40IDAuNjcsMC44NCAxLjU1LDEuMjcgMi42NiwxLjI3IDEuMTMsMCAyLjAyLC0wLjQxIDIuNjgsLTEuMjMgMC42NywtMC44MiAxLC0xLjk1IDEsLTMuMzggeiIvPiYjeGE7JiN4YTs8cGF0aCBpZD0icGF0aDEwNDU2NiIgaW5rc2NhcGU6Y29ubmVjdG9yLWN1cnZhdHVyZT0iMCIgc3R5bGU9ImZpbGw6I2ZmZmZmZiIgZD0iTSA0Mi4zOSw0My4yIEggMzMuNzQgViAyOC42NyBoIDMuMjcgdiAxMS44OCBoIDUuMzggeiIvPiYjeGE7PC9zdmc+;" vertex="1" parent="1">
          <mxGeometry x="1584" y="120" width="46" height="61" as="geometry" />
        </mxCell>
        <mxCell id="68YzYJUB7aVhe4MOimAx-57" value="&lt;b&gt;&lt;font color=&quot;#000000&quot; style=&quot;font-size: 10px;&quot;&gt;Service&lt;/font&gt;&lt;/b&gt;" style="text;html=1;align=center;verticalAlign=middle;whiteSpace=wrap;rounded=0;fillColor=#FFFF33;fillStyle=solid;" vertex="1" parent="1">
          <mxGeometry x="1630" y="70" width="40" height="20" as="geometry" />
        </mxCell>
        <mxCell id="68YzYJUB7aVhe4MOimAx-58" value="" style="sketch=0;pointerEvents=1;shadow=0;dashed=0;html=1;strokeColor=none;fillColor=#505050;labelPosition=center;verticalLabelPosition=bottom;verticalAlign=top;outlineConnect=0;align=center;shape=mxgraph.office.devices.hard_disk;" vertex="1" parent="1">
          <mxGeometry x="1679" y="123" width="40" height="54" as="geometry" />
        </mxCell>
        <mxCell id="68YzYJUB7aVhe4MOimAx-59" value="Container" style="text;align=center;html=1;verticalAlign=middle;whiteSpace=wrap;rounded=0;fontColor=#000000;" vertex="1" parent="1">
          <mxGeometry x="1364" y="86.5" width="60" height="30" as="geometry" />
        </mxCell>
        <mxCell id="68YzYJUB7aVhe4MOimAx-60" value="Container" style="text;align=center;html=1;verticalAlign=middle;whiteSpace=wrap;rounded=0;fontColor=#000000;" vertex="1" parent="1">
          <mxGeometry x="1577" y="96.5" width="60" height="30" as="geometry" />
        </mxCell>
        <mxCell id="68YzYJUB7aVhe4MOimAx-61" value="Volume&lt;br&gt;ext. mount" style="text;align=center;html=1;verticalAlign=middle;whiteSpace=wrap;rounded=0;fontColor=#000000;" vertex="1" parent="1">
          <mxGeometry x="1669" y="178.5" width="60" height="30" as="geometry" />
        </mxCell>
        <mxCell id="68YzYJUB7aVhe4MOimAx-62" value="" style="sketch=0;html=1;dashed=0;whitespace=wrap;fillColor=#2875E2;strokeColor=#ffffff;points=[[0.005,0.63,0],[0.1,0.2,0],[0.9,0.2,0],[0.5,0,0],[0.995,0.63,0],[0.72,0.99,0],[0.5,1,0],[0.28,0.99,0]];verticalLabelPosition=bottom;align=center;verticalAlign=top;shape=mxgraph.kubernetes.icon;prIcon=kubelet" vertex="1" parent="1">
          <mxGeometry x="1527" y="209" width="50" height="48" as="geometry" />
        </mxCell>
        <mxCell id="68YzYJUB7aVhe4MOimAx-63" value="" style="endArrow=classic;startArrow=classic;html=1;rounded=0;exitX=1;exitY=0.5;exitDx=0;exitDy=0;entryX=0;entryY=0.5;entryDx=0;entryDy=0;" edge="1" source="68YzYJUB7aVhe4MOimAx-54" target="68YzYJUB7aVhe4MOimAx-57" parent="1">
          <mxGeometry width="50" height="50" relative="1" as="geometry">
            <mxPoint x="1810" y="30" as="sourcePoint" />
            <mxPoint x="1860" y="-20" as="targetPoint" />
          </mxGeometry>
        </mxCell>
        <mxCell id="68YzYJUB7aVhe4MOimAx-64" value="&lt;font style=&quot;font-size: 6px;&quot;&gt;CONFIG&lt;br&gt;MAP&lt;/font&gt;" style="whiteSpace=wrap;html=1;shape=mxgraph.basic.document" vertex="1" parent="1">
          <mxGeometry x="1494" y="161" width="32.63" height="43.5" as="geometry" />
        </mxCell>
        <mxCell id="68YzYJUB7aVhe4MOimAx-65" value="&lt;b&gt;Node 2&lt;/b&gt;" style="text;html=1;strokeColor=none;fillColor=none;align=center;verticalAlign=middle;whiteSpace=wrap;rounded=0;" vertex="1" parent="1">
          <mxGeometry x="870" y="40" width="50" height="20" as="geometry" />
        </mxCell>
        <mxCell id="68YzYJUB7aVhe4MOimAx-66" value="&lt;b&gt;Node 3&lt;/b&gt;" style="text;html=1;strokeColor=none;fillColor=none;align=center;verticalAlign=middle;whiteSpace=wrap;rounded=0;" vertex="1" parent="1">
          <mxGeometry x="1365" y="40" width="50" height="20" as="geometry" />
        </mxCell>
        <mxCell id="68YzYJUB7aVhe4MOimAx-82" value="" style="curved=1;endArrow=classic;html=1;rounded=0;entryX=0.5;entryY=0;entryDx=0;entryDy=0;exitX=1;exitY=0.5;exitDx=0;exitDy=0;" edge="1" parent="1" source="68YzYJUB7aVhe4MOimAx-26" target="68YzYJUB7aVhe4MOimAx-38">
          <mxGeometry width="50" height="50" relative="1" as="geometry">
            <mxPoint x="760" y="-20" as="sourcePoint" />
            <mxPoint x="810" y="-70" as="targetPoint" />
            <Array as="points">
              <mxPoint x="720" y="-30" />
              <mxPoint x="740" />
              <mxPoint x="850" y="-90" />
            </Array>
          </mxGeometry>
        </mxCell>
        <mxCell id="68YzYJUB7aVhe4MOimAx-83" value="" style="curved=1;endArrow=classic;html=1;rounded=0;entryX=0.5;entryY=0;entryDx=0;entryDy=0;" edge="1" parent="1" target="68YzYJUB7aVhe4MOimAx-54">
          <mxGeometry width="50" height="50" relative="1" as="geometry">
            <mxPoint x="710" y="-50" as="sourcePoint" />
            <mxPoint x="1130" y="40" as="targetPoint" />
            <Array as="points">
              <mxPoint x="800" y="-80" />
              <mxPoint x="870" y="-90" />
              <mxPoint x="915" y="-30" />
              <mxPoint x="1025" y="-120" />
              <mxPoint x="1430" y="-30" />
            </Array>
          </mxGeometry>
        </mxCell>
        <mxCell id="68YzYJUB7aVhe4MOimAx-85" style="edgeStyle=orthogonalEdgeStyle;rounded=0;orthogonalLoop=1;jettySize=auto;html=1;exitX=0.5;exitY=1;exitDx=0;exitDy=0;entryX=0.635;entryY=0.005;entryDx=0;entryDy=0;entryPerimeter=0;dashed=1;strokeWidth=6;strokeColor=#007FFF;" edge="1" parent="1" source="68YzYJUB7aVhe4MOimAx-84">
          <mxGeometry relative="1" as="geometry">
            <mxPoint x="1487.975" y="21.299999999999955" as="targetPoint" />
          </mxGeometry>
        </mxCell>
        <mxCell id="68YzYJUB7aVhe4MOimAx-84" value="" style="image;html=1;image=img/lib/clip_art/general/Plug_128x128.png" vertex="1" parent="1">
          <mxGeometry x="1455" y="-160" width="65" height="68" as="geometry" />
        </mxCell>
        <mxCell id="68YzYJUB7aVhe4MOimAx-87" value="" style="group" vertex="1" connectable="0" parent="1">
          <mxGeometry x="890" y="-390" width="700" height="250" as="geometry" />
        </mxCell>
        <mxCell id="r2ZMJQZ2ZS2uarGRFzwT-5" value="" style="rounded=0;whiteSpace=wrap;html=1;fillColor=none;align=left;" parent="68YzYJUB7aVhe4MOimAx-87" vertex="1">
          <mxGeometry width="700" height="250" as="geometry" />
        </mxCell>
        <mxCell id="r2ZMJQZ2ZS2uarGRFzwT-2" value="&lt;b&gt;&lt;font color=&quot;#000000&quot; style=&quot;font-size: 12px&quot;&gt;kubctl&lt;/font&gt;&lt;/b&gt;" style="rounded=0;whiteSpace=wrap;html=1;fillColor=#FFFF33;strokeColor=#6c8ebf;" parent="68YzYJUB7aVhe4MOimAx-87" vertex="1">
          <mxGeometry x="159.0909090909091" y="23.61111111111111" width="111.36363636363636" height="41.666666666666664" as="geometry" />
        </mxCell>
        <mxCell id="r2ZMJQZ2ZS2uarGRFzwT-3" value="&lt;b&gt;&lt;font style=&quot;font-size: 12px&quot;&gt;&lt;font style=&quot;background-color: rgb(255, 255, 51);&quot; color=&quot;#000000&quot;&gt;config&lt;/font&gt;&lt;br&gt;&lt;/font&gt;&lt;/b&gt;" style="rounded=0;whiteSpace=wrap;html=1;fillColor=#FFFF33;strokeColor=#FFFF33;" parent="68YzYJUB7aVhe4MOimAx-87" vertex="1">
          <mxGeometry x="443.8636363636364" y="23.61111111111111" width="111.36363636363636" height="41.666666666666664" as="geometry" />
        </mxCell>
        <mxCell id="68YzYJUB7aVhe4MOimAx-19" value="" style="sketch=0;html=1;dashed=0;whitespace=wrap;fillColor=#2875E2;strokeColor=#ffffff;points=[[0.005,0.63,0],[0.1,0.2,0],[0.9,0.2,0],[0.5,0,0],[0.995,0.63,0],[0.72,0.99,0],[0.5,1,0],[0.28,0.99,0]];verticalLabelPosition=bottom;align=center;verticalAlign=top;shape=mxgraph.kubernetes.icon;prIcon=cm" vertex="1" parent="68YzYJUB7aVhe4MOimAx-87">
          <mxGeometry x="270.45454545454544" y="166.66666666666666" width="79.54545454545455" height="66.66666666666667" as="geometry" />
        </mxCell>
        <mxCell id="68YzYJUB7aVhe4MOimAx-21" value="" style="sketch=0;html=1;dashed=0;whitespace=wrap;fillColor=#2875E2;strokeColor=#ffffff;points=[[0.005,0.63,0],[0.1,0.2,0],[0.9,0.2,0],[0.5,0,0],[0.995,0.63,0],[0.72,0.99,0],[0.5,1,0],[0.28,0.99,0]];verticalLabelPosition=bottom;align=center;verticalAlign=top;shape=mxgraph.kubernetes.icon;prIcon=api" vertex="1" parent="68YzYJUB7aVhe4MOimAx-87">
          <mxGeometry x="560.7954545454546" y="166.66666666666666" width="79.54545454545455" height="66.66666666666667" as="geometry" />
        </mxCell>
        <mxCell id="68YzYJUB7aVhe4MOimAx-22" value="" style="sketch=0;html=1;dashed=0;whitespace=wrap;fillColor=#2875E2;strokeColor=#ffffff;points=[[0.005,0.63,0],[0.1,0.2,0],[0.9,0.2,0],[0.5,0,0],[0.995,0.63,0],[0.72,0.99,0],[0.5,1,0],[0.28,0.99,0]];verticalLabelPosition=bottom;align=center;verticalAlign=top;shape=mxgraph.kubernetes.icon;prIcon=etcd" vertex="1" parent="68YzYJUB7aVhe4MOimAx-87">
          <mxGeometry x="143.1818181818182" y="166.66666666666666" width="79.54545454545455" height="66.66666666666667" as="geometry" />
        </mxCell>
        <mxCell id="68YzYJUB7aVhe4MOimAx-23" value="" style="sketch=0;html=1;dashed=0;whitespace=wrap;fillColor=#2875E2;strokeColor=#ffffff;points=[[0.005,0.63,0],[0.1,0.2,0],[0.9,0.2,0],[0.5,0,0],[0.995,0.63,0],[0.72,0.99,0],[0.5,1,0],[0.28,0.99,0]];verticalLabelPosition=bottom;align=center;verticalAlign=top;shape=mxgraph.kubernetes.icon;prIcon=sched" vertex="1" parent="68YzYJUB7aVhe4MOimAx-87">
          <mxGeometry x="413.6363636363637" y="166.66666666666666" width="79.54545454545455" height="66.66666666666667" as="geometry" />
        </mxCell>
        <mxCell id="68YzYJUB7aVhe4MOimAx-24" value="" style="pointerEvents=1;shadow=0;dashed=0;html=1;strokeColor=none;fillColor=#4495D1;labelPosition=center;verticalLabelPosition=bottom;verticalAlign=top;align=center;outlineConnect=0;shape=mxgraph.veeam.laptop;" vertex="1" parent="68YzYJUB7aVhe4MOimAx-87">
          <mxGeometry x="308.79545454545445" y="13.88888888888889" width="92.9090909090909" height="61.111111111111114" as="geometry" />
        </mxCell>
        <mxCell id="68YzYJUB7aVhe4MOimAx-68" value="" style="sketch=0;html=1;dashed=0;whitespace=wrap;fillColor=#2875E2;strokeColor=#ffffff;points=[[0.005,0.63,0],[0.1,0.2,0],[0.9,0.2,0],[0.5,0,0],[0.995,0.63,0],[0.72,0.99,0],[0.5,1,0],[0.28,0.99,0]];verticalLabelPosition=bottom;align=center;verticalAlign=top;shape=mxgraph.kubernetes.icon;prIcon=secret" vertex="1" parent="68YzYJUB7aVhe4MOimAx-87">
          <mxGeometry x="38.18181818181818" y="166.66666666666666" width="79.54545454545455" height="66.66666666666667" as="geometry" />
        </mxCell>
        <mxCell id="68YzYJUB7aVhe4MOimAx-69" value="" style="html=1;verticalLabelPosition=bottom;align=center;labelBackgroundColor=#ffffff;verticalAlign=top;strokeWidth=2;strokeColor=#ae4132;shadow=0;dashed=0;shape=mxgraph.ios7.icons.link;fillColor=#fad9d5;rotation=45;" vertex="1" parent="68YzYJUB7aVhe4MOimAx-87">
          <mxGeometry x="111.36363636363636" y="179.16666666666666" width="47.72727272727273" height="41.666666666666664" as="geometry" />
        </mxCell>
        <mxCell id="68YzYJUB7aVhe4MOimAx-70" value="&lt;font style=&quot;font-size: 15px;&quot;&gt;Secrets&lt;br style=&quot;font-size: 15px;&quot;&gt;(credentials,&lt;br style=&quot;font-size: 15px;&quot;&gt;certs)&lt;/font&gt;" style="text;strokeColor=none;align=center;fillColor=none;html=1;verticalAlign=middle;whiteSpace=wrap;rounded=0;fontSize=15;" vertex="1" parent="68YzYJUB7aVhe4MOimAx-87">
          <mxGeometry x="6.363636363636364" y="97.22222222222223" width="143.1818181818182" height="69.44444444444444" as="geometry" />
        </mxCell>
        <mxCell id="68YzYJUB7aVhe4MOimAx-71" value="&lt;font style=&quot;font-size: 15px;&quot;&gt;ETCD&lt;br style=&quot;font-size: 15px;&quot;&gt;(K8s backup store)&lt;/font&gt;" style="text;strokeColor=none;align=center;fillColor=none;html=1;verticalAlign=middle;whiteSpace=wrap;rounded=0;fontSize=15;" vertex="1" parent="68YzYJUB7aVhe4MOimAx-87">
          <mxGeometry x="117.72727272727273" y="111.11111111111111" width="143.1818181818182" height="69.44444444444444" as="geometry" />
        </mxCell>
        <mxCell id="68YzYJUB7aVhe4MOimAx-72" value="&lt;span style=&quot;font-size: 14px;&quot;&gt;Control&lt;br style=&quot;font-size: 14px;&quot;&gt;&lt;/span&gt;manger&lt;br style=&quot;font-size: 14px;&quot;&gt;(event tracker)" style="text;strokeColor=none;align=center;fillColor=none;html=1;verticalAlign=middle;whiteSpace=wrap;rounded=0;fontSize=14;" vertex="1" parent="68YzYJUB7aVhe4MOimAx-87">
          <mxGeometry x="238.63636363636365" y="97.22222222222223" width="143.1818181818182" height="69.44444444444444" as="geometry" />
        </mxCell>
        <mxCell id="68YzYJUB7aVhe4MOimAx-73" value="&lt;span style=&quot;font-size: 15px;&quot;&gt;Scheduler&lt;br style=&quot;font-size: 15px;&quot;&gt;(work load balancer)&lt;br style=&quot;font-size: 15px;&quot;&gt;(pod placement)&lt;br style=&quot;font-size: 15px;&quot;&gt;&lt;/span&gt;" style="text;strokeColor=none;align=center;fillColor=none;html=1;verticalAlign=middle;whiteSpace=wrap;rounded=0;fontSize=15;" vertex="1" parent="68YzYJUB7aVhe4MOimAx-87">
          <mxGeometry x="365.90909090909093" y="97.22222222222223" width="175" height="69.44444444444444" as="geometry" />
        </mxCell>
        <mxCell id="68YzYJUB7aVhe4MOimAx-74" value="&lt;span style=&quot;font-size: 14px;&quot;&gt;Coms API&lt;br style=&quot;font-size: 14px;&quot;&gt;(Entry to K8s cluster)&lt;br style=&quot;font-size: 14px;&quot;&gt;(e.g like port to outside world)&lt;br style=&quot;font-size: 14px;&quot;&gt;&lt;/span&gt;" style="text;strokeColor=none;align=center;fillColor=none;html=1;verticalAlign=middle;whiteSpace=wrap;rounded=0;fontSize=14;" vertex="1" parent="68YzYJUB7aVhe4MOimAx-87">
          <mxGeometry x="525" y="97.22222222222223" width="175" height="69.44444444444444" as="geometry" />
        </mxCell>
      </root>
    </mxGraphModel>
  </diagram>
</mxfile>
